<svg width="80" height="57" viewBox="0 0 80 57" fill="none" xmlns="http://www.w3.org/2000/svg">
<g clip-path="url(#clip0_48_155)">
<path d="M29.0208 13.5417C29.0208 11.8289 29.7013 10.1861 30.9124 8.97498C32.1236 7.7638 33.7663 7.08337 35.4792 7.08337C37.192 7.08337 38.8347 7.7638 40.0459 8.97498C41.2571 10.1861 41.9375 11.8289 41.9375 13.5417C41.9375 15.2546 41.2571 16.8973 40.0459 18.1084C38.8347 19.3196 37.192 20 35.4792 20C33.7663 20 32.1236 19.3196 30.9124 18.1084C29.7013 16.8973 29.0208 15.2546 29.0208 13.5417ZM30.9583 22.5834C29.2455 22.5834 27.6028 23.2638 26.3916 24.475C25.1804 25.6861 24.5 27.3289 24.5 29.0417V31.625H46.4583V29.0417C46.4583 27.3289 45.7779 25.6861 44.5667 24.475C43.3556 23.2638 41.7129 22.5834 40 22.5834H30.9583ZM55.5 31.625H49.0417V29.0417C49.0417 26.5113 48.0032 24.2238 46.3292 22.5834H49.0417C49.8898 22.5834 50.7296 22.7504 51.5132 23.075C52.2967 23.3995 53.0087 23.8753 53.6084 24.475C54.2081 25.0747 54.6838 25.7866 55.0084 26.5702C55.3329 27.3538 55.5 28.1936 55.5 29.0417V31.625ZM44.5208 20C43.7324 20.0004 42.9505 19.8564 42.2139 19.5751C43.7027 17.9185 44.5246 15.769 44.5208 13.5417C44.5243 11.3143 43.7019 9.16467 42.2126 7.50833C43.0975 7.17043 44.0458 7.03129 44.9904 7.10078C45.9351 7.17027 46.8528 7.44668 47.6787 7.91043C48.5046 8.37418 49.2184 9.01391 49.7694 9.78428C50.3205 10.5547 50.6953 11.4368 50.8675 12.3682C51.0396 13.2996 51.0047 14.2575 50.7653 15.1739C50.5259 16.0903 50.0879 16.9429 49.4823 17.6711C48.8767 18.3994 48.1183 18.9855 47.2609 19.388C46.4035 19.7905 45.468 19.9994 44.5208 20Z" fill="black"/>
</g>
<text fill="black" xml:space="preserve" style="white-space: pre" font-family="Tamanegi Kaisho Geki FreeVer 7" font-size="12" letter-spacing="0em"><tspan x="16" y="50.8125">&#x30ad;&#x30e3;&#x30b9;&#x30c8;</tspan></text>
<defs>
<clipPath id="clip0_48_155">
<rect width="31" height="31" fill="white" transform="translate(24.5 4.5)"/>
</clipPath>
</defs>
</svg>
