<svg width="32" height="32" viewBox="0 0 32 32" fill="none" xmlns="http://www.w3.org/2000/svg">
<g clip-path="url(#clip0_48_156)">
<path d="M5.02083 9.54171C5.02083 7.82885 5.70126 6.18615 6.91244 4.97498C8.12361 3.7638 9.76631 3.08337 11.4792 3.08337C13.192 3.08337 14.8347 3.7638 16.0459 4.97498C17.2571 6.18615 17.9375 7.82885 17.9375 9.54171C17.9375 11.2546 17.2571 12.8973 16.0459 14.1084C14.8347 15.3196 13.192 16 11.4792 16C9.76631 16 8.12361 15.3196 6.91244 14.1084C5.70126 12.8973 5.02083 11.2546 5.02083 9.54171ZM6.95833 18.5834C5.24548 18.5834 3.60277 19.2638 2.3916 20.475C1.18043 21.6861 0.5 23.3289 0.5 25.0417L0.5 27.625H22.4583V25.0417C22.4583 23.3289 21.7779 21.6861 20.5667 20.475C19.3556 19.2638 17.7129 18.5834 16 18.5834H6.95833ZM31.5 27.625H25.0417V25.0417C25.0417 22.5113 24.0032 20.2238 22.3292 18.5834H25.0417C25.8898 18.5834 26.7296 18.7504 27.5132 19.075C28.2967 19.3995 29.0087 19.8753 29.6084 20.475C30.2081 21.0747 30.6838 21.7866 31.0084 22.5702C31.3329 23.3538 31.5 24.1936 31.5 25.0417V27.625ZM20.5208 16C19.7324 16.0004 18.9505 15.8564 18.2139 15.5751C19.7027 13.9185 20.5246 11.769 20.5208 9.54171C20.5243 7.31429 19.7019 5.16467 18.2126 3.50833C19.0975 3.17043 20.0458 3.03129 20.9904 3.10078C21.9351 3.17027 22.8528 3.44668 23.6787 3.91043C24.5046 4.37418 25.2184 5.01391 25.7694 5.78428C26.3205 6.55465 26.6953 7.4368 26.8675 8.36821C27.0396 9.29961 27.0047 10.2575 26.7653 11.1739C26.5259 12.0903 26.0879 12.9429 25.4823 13.6711C24.8767 14.3994 24.1183 14.9855 23.2609 15.388C22.4035 15.7905 21.468 15.9994 20.5208 16Z" fill="black"/>
</g>
<defs>
<clipPath id="clip0_48_156">
<rect width="31" height="31" fill="white" transform="translate(0.5 0.5)"/>
</clipPath>
</defs>
</svg>
