<svg width="24" height="31" viewBox="0 0 24 31" fill="none" xmlns="http://www.w3.org/2000/svg">
<g clip-path="url(#clip0_279_6712)">
<path d="M12.0002 0C12.9152 0 13.7928 0.306193 14.4398 0.851221C15.0868 1.39625 15.4502 2.13546 15.4502 2.90625C15.4502 3.67704 15.0868 4.41625 14.4398 4.96128C13.7928 5.50631 12.9152 5.8125 12.0002 5.8125C11.0852 5.8125 10.2077 5.50631 9.56072 4.96128C8.91372 4.41625 8.55024 3.67704 8.55024 2.90625C8.55024 2.13546 8.91372 1.39625 9.56072 0.851221C10.2077 0.306193 11.0852 0 12.0002 0ZM6.82524 23.25H5.54587C4.76243 23.25 4.20899 22.6021 4.45337 21.9725L7.20618 15.0217L4.76962 18.4365C4.11555 19.3508 2.69962 19.6475 1.6143 19.0965C0.528991 18.5455 0.176803 17.3527 0.830866 16.4385L4.68337 11.0377C6.14243 8.99727 8.75868 7.75 11.5834 7.75H12.4171C15.2418 7.75 17.8581 8.99727 19.3171 11.0377L23.1696 16.4385C23.8237 17.3527 23.4715 18.5455 22.3862 19.0965C21.3009 19.6475 19.8849 19.3508 19.2309 18.4365L16.7943 15.0277L19.5471 21.9725C19.7987 22.6021 19.2381 23.25 18.4546 23.25H17.1752V29.0625C17.1752 30.1342 16.1474 31 14.8752 31C13.6031 31 12.5752 30.1342 12.5752 29.0625V23.25H11.4252V29.0625C11.4252 30.1342 10.3974 31 9.12524 31C7.85305 31 6.82524 30.1342 6.82524 29.0625V23.25Z" fill="black"/>
</g>
<defs>
<clipPath id="clip0_279_6712">
<rect width="23" height="31" fill="white" transform="translate(0.5)"/>
</clipPath>
</defs>
</svg>