<svg width="32" height="31" viewBox="0 0 32 31" fill="none" xmlns="http://www.w3.org/2000/svg">
<path d="M28.1498 0C29.0071 0 29.6998 0.86582 29.6998 1.9375V29.0625C29.6998 30.1342 29.0071 31 28.1498 31C27.2925 31 26.5998 30.1342 26.5998 29.0625V1.9375C26.5998 0.86582 27.2925 0 28.1498 0ZM21.9498 5.8125C22.8071 5.8125 23.4998 6.67832 23.4998 7.75V29.0625C23.4998 30.1342 22.8071 31 21.9498 31C21.0925 31 20.3998 30.1342 20.3998 29.0625V7.75C20.3998 6.67832 21.0925 5.8125 21.9498 5.8125ZM17.2998 13.5625V29.0625C17.2998 30.1342 16.6071 31 15.7498 31C14.8925 31 14.1998 30.1342 14.1998 29.0625V13.5625C14.1998 12.4908 14.8925 11.625 15.7498 11.625C16.6071 11.625 17.2998 12.4908 17.2998 13.5625ZM9.5498 17.4375C10.4071 17.4375 11.0998 18.3033 11.0998 19.375V29.0625C11.0998 30.1342 10.4071 31 9.5498 31C8.69246 31 7.9998 30.1342 7.9998 29.0625V19.375C7.9998 18.3033 8.69246 17.4375 9.5498 17.4375ZM4.8998 25.1875V29.0625C4.8998 30.1342 4.20715 31 3.3498 31C2.49246 31 1.7998 30.1342 1.7998 29.0625V25.1875C1.7998 24.1158 2.49246 23.25 3.3498 23.25C4.20715 23.25 4.8998 24.1158 4.8998 25.1875Z" fill="black"/>
</svg>