<svg width="80" height="57" viewBox="0 0 80 57" fill="none" xmlns="http://www.w3.org/2000/svg">
<g clip-path="url(#clip0_48_172)">
<path d="M55.5 26.0063C55.5 23.1 52.5938 20.5813 49.3 19.6125C46.7813 22.5188 41.7438 24.2625 36.9 24.2625H35.9313C35.7375 24.8438 35.7375 25.2313 35.7375 25.8125C35.7375 29.6875 40 32.7875 45.425 32.7875H46.5875C47.3625 33.7563 49.8813 35.5 53.175 35.5C53.175 35.5 51.625 34.725 51.625 32.0125C51.625 30.85 55.5 28.525 55.5 26.0063Z" fill="black"/>
<path d="M49.6875 13.4125C49.6875 8.56875 44.2625 4.5 37.2875 4.5C30.3125 4.5 24.5 8.56875 24.5 13.4125C24.5 16.7062 28.375 19.6125 30.3125 21.1625C30.3125 24.65 27.6 25.8125 27.6 25.8125C32.0562 25.8125 34.575 23.6812 35.7375 22.325H37.2875C44.0687 22.5187 49.6875 18.45 49.6875 13.4125Z" fill="black"/>
</g>
<text fill="black" xml:space="preserve" style="white-space: pre" font-family="Tamanegi Kaisho Geki FreeVer 7" font-size="12" letter-spacing="0em"><tspan x="16" y="50.8125">&#x30c1;&#x30e3;&#x30c3;&#x30c8;</tspan></text>
<defs>
<clipPath id="clip0_48_172">
<rect width="31" height="31" fill="white" transform="translate(24.5 4.5)"/>
</clipPath>
</defs>
</svg>
