<svg width="32" height="32" viewBox="0 0 32 32" fill="none" xmlns="http://www.w3.org/2000/svg">
<g clip-path="url(#clip0_48_173)">
<path d="M31.5 22.0063C31.5 19.1 28.5938 16.5813 25.3 15.6125C22.7813 18.5188 17.7438 20.2625 12.9 20.2625H11.9313C11.7375 20.8438 11.7375 21.2313 11.7375 21.8125C11.7375 25.6875 16 28.7875 21.425 28.7875H22.5875C23.3625 29.7563 25.8813 31.5 29.175 31.5C29.175 31.5 27.625 30.725 27.625 28.0125C27.625 26.85 31.5 24.525 31.5 22.0063Z" fill="black"/>
<path d="M25.6875 9.4125C25.6875 4.56875 20.2625 0.5 13.2875 0.5C6.3125 0.5 0.5 4.56875 0.5 9.4125C0.5 12.7062 4.375 15.6125 6.3125 17.1625C6.3125 20.65 3.6 21.8125 3.6 21.8125C8.05625 21.8125 10.575 19.6812 11.7375 18.325H13.2875C20.0687 18.5187 25.6875 14.45 25.6875 9.4125Z" fill="black"/>
</g>
<defs>
<clipPath id="clip0_48_173">
<rect width="31" height="31" fill="white" transform="translate(0.5 0.5)"/>
</clipPath>
</defs>
</svg>
