<svg width="32" height="32" viewBox="0 0 32 32" fill="none" xmlns="http://www.w3.org/2000/svg">
<path d="M2.4375 28.1094C2.4375 28.4948 2.5906 28.8644 2.86311 29.1369C3.13562 29.4094 3.50523 29.5625 3.89062 29.5625H28.1094C28.4948 29.5625 28.8644 29.4094 29.1369 29.1369C29.4094 28.8644 29.5625 28.4948 29.5625 28.1094V11.1562H2.4375V28.1094ZM21.8125 13.3359C21.8125 13.2717 21.838 13.2101 21.8834 13.1647C21.9289 13.1193 21.9905 13.0938 22.0547 13.0938H24.4766C24.5408 13.0938 24.6024 13.1193 24.6478 13.1647C24.6932 13.2101 24.7188 13.2717 24.7188 13.3359V15.7578C24.7188 15.822 24.6932 15.8836 24.6478 15.9291C24.6024 15.9745 24.5408 16 24.4766 16H22.0547C21.9905 16 21.9289 15.9745 21.8834 15.9291C21.838 15.8836 21.8125 15.822 21.8125 15.7578V13.3359ZM21.8125 18.1797C21.8125 18.1155 21.838 18.0539 21.8834 18.0084C21.9289 17.963 21.9905 17.9375 22.0547 17.9375H24.4766C24.5408 17.9375 24.6024 17.963 24.6478 18.0084C24.6932 18.0539 24.7188 18.1155 24.7188 18.1797V20.6016C24.7188 20.6658 24.6932 20.7274 24.6478 20.7728C24.6024 20.8182 24.5408 20.8438 24.4766 20.8438H22.0547C21.9905 20.8438 21.9289 20.8182 21.8834 20.7728C21.838 20.7274 21.8125 20.6658 21.8125 20.6016V18.1797ZM16.9688 13.3359C16.9688 13.2717 16.9943 13.2101 17.0397 13.1647C17.0851 13.1193 17.1467 13.0938 17.2109 13.0938H19.6328C19.697 13.0938 19.7586 13.1193 19.8041 13.1647C19.8495 13.2101 19.875 13.2717 19.875 13.3359V15.7578C19.875 15.822 19.8495 15.8836 19.8041 15.9291C19.7586 15.9745 19.697 16 19.6328 16H17.2109C17.1467 16 17.0851 15.9745 17.0397 15.9291C16.9943 15.8836 16.9688 15.822 16.9688 15.7578V13.3359ZM16.9688 18.1797C16.9688 18.1155 16.9943 18.0539 17.0397 18.0084C17.0851 17.963 17.1467 17.9375 17.2109 17.9375H19.6328C19.697 17.9375 19.7586 17.963 19.8041 18.0084C19.8495 18.0539 19.875 18.1155 19.875 18.1797V20.6016C19.875 20.6658 19.8495 20.7274 19.8041 20.7728C19.7586 20.8182 19.697 20.8438 19.6328 20.8438H17.2109C17.1467 20.8438 17.0851 20.8182 17.0397 20.7728C16.9943 20.7274 16.9688 20.6658 16.9688 20.6016V18.1797ZM16.9688 23.0234C16.9688 22.9592 16.9943 22.8976 17.0397 22.8522C17.0851 22.8068 17.1467 22.7812 17.2109 22.7812H19.6328C19.697 22.7812 19.7586 22.8068 19.8041 22.8522C19.8495 22.8976 19.875 22.9592 19.875 23.0234V25.4453C19.875 25.5095 19.8495 25.5711 19.8041 25.6166C19.7586 25.662 19.697 25.6875 19.6328 25.6875H17.2109C17.1467 25.6875 17.0851 25.662 17.0397 25.6166C16.9943 25.5711 16.9688 25.5095 16.9688 25.4453V23.0234ZM12.125 18.1797C12.125 18.1155 12.1505 18.0539 12.1959 18.0084C12.2414 17.963 12.303 17.9375 12.3672 17.9375H14.7891C14.8533 17.9375 14.9149 17.963 14.9603 18.0084C15.0057 18.0539 15.0312 18.1155 15.0312 18.1797V20.6016C15.0312 20.6658 15.0057 20.7274 14.9603 20.7728C14.9149 20.8182 14.8533 20.8438 14.7891 20.8438H12.3672C12.303 20.8438 12.2414 20.8182 12.1959 20.7728C12.1505 20.7274 12.125 20.6658 12.125 20.6016V18.1797ZM12.125 23.0234C12.125 22.9592 12.1505 22.8976 12.1959 22.8522C12.2414 22.8068 12.303 22.7812 12.3672 22.7812H14.7891C14.8533 22.7812 14.9149 22.8068 14.9603 22.8522C15.0057 22.8976 15.0312 22.9592 15.0312 23.0234V25.4453C15.0312 25.5095 15.0057 25.5711 14.9603 25.6166C14.9149 25.662 14.8533 25.6875 14.7891 25.6875H12.3672C12.303 25.6875 12.2414 25.662 12.1959 25.6166C12.1505 25.5711 12.125 25.5095 12.125 25.4453V23.0234ZM7.28125 18.1797C7.28125 18.1155 7.30677 18.0539 7.35218 18.0084C7.3976 17.963 7.45921 17.9375 7.52344 17.9375H9.94531C10.0095 17.9375 10.0711 17.963 10.1166 18.0084C10.162 18.0539 10.1875 18.1155 10.1875 18.1797V20.6016C10.1875 20.6658 10.162 20.7274 10.1166 20.7728C10.0711 20.8182 10.0095 20.8438 9.94531 20.8438H7.52344C7.45921 20.8438 7.3976 20.8182 7.35218 20.7728C7.30677 20.7274 7.28125 20.6658 7.28125 20.6016V18.1797ZM7.28125 23.0234C7.28125 22.9592 7.30677 22.8976 7.35218 22.8522C7.3976 22.8068 7.45921 22.7812 7.52344 22.7812H9.94531C10.0095 22.7812 10.0711 22.8068 10.1166 22.8522C10.162 22.8976 10.1875 22.9592 10.1875 23.0234V25.4453C10.1875 25.5095 10.162 25.5711 10.1166 25.6166C10.0711 25.662 10.0095 25.6875 9.94531 25.6875H7.52344C7.45921 25.6875 7.3976 25.662 7.35218 25.6166C7.30677 25.5711 7.28125 25.5095 7.28125 25.4453V23.0234ZM28.1094 4.375H24.7236V2.4375H21.8173V4.375H10.1827V2.4375H7.27641V4.375H3.89062C3.70052 4.3734 3.51199 4.40944 3.33587 4.48102C3.15976 4.55261 2.99955 4.65834 2.86448 4.79212C2.72941 4.9259 2.62214 5.08508 2.54886 5.26049C2.47558 5.43591 2.43773 5.62409 2.4375 5.8142V9.21875H29.5625V5.8142C29.5623 5.62409 29.5244 5.43591 29.4511 5.26049C29.3779 5.08508 29.2706 4.9259 29.1355 4.79212C29.0004 4.65834 28.8402 4.55261 28.6641 4.48102C28.488 4.40944 28.2995 4.3734 28.1094 4.375Z" fill="black"/>
</svg>
