<svg width="80" height="57" viewBox="0 0 80 57" fill="none" xmlns="http://www.w3.org/2000/svg">
<path d="M26.4375 32.1094C26.4375 32.4948 26.5906 32.8644 26.8631 33.1369C27.1356 33.4094 27.5052 33.5625 27.8906 33.5625H52.1094C52.4948 33.5625 52.8644 33.4094 53.1369 33.1369C53.4094 32.8644 53.5625 32.4948 53.5625 32.1094V15.1562H26.4375V32.1094ZM45.8125 17.3359C45.8125 17.2717 45.838 17.2101 45.8834 17.1647C45.9289 17.1193 45.9905 17.0938 46.0547 17.0938H48.4766C48.5408 17.0938 48.6024 17.1193 48.6478 17.1647C48.6932 17.2101 48.7188 17.2717 48.7188 17.3359V19.7578C48.7188 19.822 48.6932 19.8836 48.6478 19.9291C48.6024 19.9745 48.5408 20 48.4766 20H46.0547C45.9905 20 45.9289 19.9745 45.8834 19.9291C45.838 19.8836 45.8125 19.822 45.8125 19.7578V17.3359ZM45.8125 22.1797C45.8125 22.1155 45.838 22.0539 45.8834 22.0084C45.9289 21.963 45.9905 21.9375 46.0547 21.9375H48.4766C48.5408 21.9375 48.6024 21.963 48.6478 22.0084C48.6932 22.0539 48.7188 22.1155 48.7188 22.1797V24.6016C48.7188 24.6658 48.6932 24.7274 48.6478 24.7728C48.6024 24.8182 48.5408 24.8438 48.4766 24.8438H46.0547C45.9905 24.8438 45.9289 24.8182 45.8834 24.7728C45.838 24.7274 45.8125 24.6658 45.8125 24.6016V22.1797ZM40.9688 17.3359C40.9688 17.2717 40.9943 17.2101 41.0397 17.1647C41.0851 17.1193 41.1467 17.0938 41.2109 17.0938H43.6328C43.697 17.0938 43.7586 17.1193 43.8041 17.1647C43.8495 17.2101 43.875 17.2717 43.875 17.3359V19.7578C43.875 19.822 43.8495 19.8836 43.8041 19.9291C43.7586 19.9745 43.697 20 43.6328 20H41.2109C41.1467 20 41.0851 19.9745 41.0397 19.9291C40.9943 19.8836 40.9688 19.822 40.9688 19.7578V17.3359ZM40.9688 22.1797C40.9688 22.1155 40.9943 22.0539 41.0397 22.0084C41.0851 21.963 41.1467 21.9375 41.2109 21.9375H43.6328C43.697 21.9375 43.7586 21.963 43.8041 22.0084C43.8495 22.0539 43.875 22.1155 43.875 22.1797V24.6016C43.875 24.6658 43.8495 24.7274 43.8041 24.7728C43.7586 24.8182 43.697 24.8438 43.6328 24.8438H41.2109C41.1467 24.8438 41.0851 24.8182 41.0397 24.7728C40.9943 24.7274 40.9688 24.6658 40.9688 24.6016V22.1797ZM40.9688 27.0234C40.9688 26.9592 40.9943 26.8976 41.0397 26.8522C41.0851 26.8068 41.1467 26.7812 41.2109 26.7812H43.6328C43.697 26.7812 43.7586 26.8068 43.8041 26.8522C43.8495 26.8976 43.875 26.9592 43.875 27.0234V29.4453C43.875 29.5095 43.8495 29.5711 43.8041 29.6166C43.7586 29.662 43.697 29.6875 43.6328 29.6875H41.2109C41.1467 29.6875 41.0851 29.662 41.0397 29.6166C40.9943 29.5711 40.9688 29.5095 40.9688 29.4453V27.0234ZM36.125 22.1797C36.125 22.1155 36.1505 22.0539 36.1959 22.0084C36.2414 21.963 36.303 21.9375 36.3672 21.9375H38.7891C38.8533 21.9375 38.9149 21.963 38.9603 22.0084C39.0057 22.0539 39.0312 22.1155 39.0312 22.1797V24.6016C39.0312 24.6658 39.0057 24.7274 38.9603 24.7728C38.9149 24.8182 38.8533 24.8438 38.7891 24.8438H36.3672C36.303 24.8438 36.2414 24.8182 36.1959 24.7728C36.1505 24.7274 36.125 24.6658 36.125 24.6016V22.1797ZM36.125 27.0234C36.125 26.9592 36.1505 26.8976 36.1959 26.8522C36.2414 26.8068 36.303 26.7812 36.3672 26.7812H38.7891C38.8533 26.7812 38.9149 26.8068 38.9603 26.8522C39.0057 26.8976 39.0312 26.9592 39.0312 27.0234V29.4453C39.0312 29.5095 39.0057 29.5711 38.9603 29.6166C38.9149 29.662 38.8533 29.6875 38.7891 29.6875H36.3672C36.303 29.6875 36.2414 29.662 36.1959 29.6166C36.1505 29.5711 36.125 29.5095 36.125 29.4453V27.0234ZM31.2812 22.1797C31.2812 22.1155 31.3068 22.0539 31.3522 22.0084C31.3976 21.963 31.4592 21.9375 31.5234 21.9375H33.9453C34.0095 21.9375 34.0711 21.963 34.1166 22.0084C34.162 22.0539 34.1875 22.1155 34.1875 22.1797V24.6016C34.1875 24.6658 34.162 24.7274 34.1166 24.7728C34.0711 24.8182 34.0095 24.8438 33.9453 24.8438H31.5234C31.4592 24.8438 31.3976 24.8182 31.3522 24.7728C31.3068 24.7274 31.2812 24.6658 31.2812 24.6016V22.1797ZM31.2812 27.0234C31.2812 26.9592 31.3068 26.8976 31.3522 26.8522C31.3976 26.8068 31.4592 26.7812 31.5234 26.7812H33.9453C34.0095 26.7812 34.0711 26.8068 34.1166 26.8522C34.162 26.8976 34.1875 26.9592 34.1875 27.0234V29.4453C34.1875 29.5095 34.162 29.5711 34.1166 29.6166C34.0711 29.662 34.0095 29.6875 33.9453 29.6875H31.5234C31.4592 29.6875 31.3976 29.662 31.3522 29.6166C31.3068 29.5711 31.2812 29.5095 31.2812 29.4453V27.0234ZM52.1094 8.375H48.7236V6.4375H45.8173V8.375H34.1827V6.4375H31.2764V8.375H27.8906C27.7005 8.3734 27.512 8.40944 27.3359 8.48102C27.1598 8.55261 26.9996 8.65834 26.8645 8.79212C26.7294 8.9259 26.6221 9.08508 26.5489 9.26049C26.4756 9.43591 26.4377 9.62409 26.4375 9.8142V13.2188H53.5625V9.8142C53.5623 9.62409 53.5244 9.43591 53.4511 9.26049C53.3779 9.08508 53.2706 8.9259 53.1355 8.79212C53.0004 8.65834 52.8402 8.55261 52.6641 8.48102C52.488 8.40944 52.2995 8.3734 52.1094 8.375Z" fill="black"/>
<text fill="black" xml:space="preserve" style="white-space: pre" font-family="Tamanegi Kaisho Geki FreeVer 7" font-size="12" letter-spacing="0em"><tspan x="16" y="50.8125">&#x6765;&#x5e97;&#x4e88;&#x7d04;</tspan></text>
</svg>
