<svg width="31" height="32" viewBox="0 0 31 32" fill="none" xmlns="http://www.w3.org/2000/svg">
<g clip-path="url(#clip0_279_5766)">
<path d="M30.9919 15.9667C30.9919 17.0563 30.1844 17.9099 29.2692 17.9099H27.5465L27.5842 27.6076C27.5842 27.771 27.5735 27.9345 27.5573 28.0979V29.0786C27.5573 30.4164 26.5937 31.5 25.404 31.5H24.5426C24.4834 31.5 24.4242 31.5 24.365 31.4939C24.2896 31.5 24.2142 31.5 24.1389 31.5L22.3893 31.4939H21.0973C19.9076 31.4939 18.944 30.4104 18.944 29.0725V27.6197V23.7455C18.944 22.674 18.1741 21.8083 17.2213 21.8083H13.776C12.8231 21.8083 12.0533 22.674 12.0533 23.7455V27.6197V29.0725C12.0533 30.4104 11.0897 31.4939 9.89996 31.4939H8.60795H6.89067C6.80992 31.4939 6.72917 31.4879 6.64842 31.4818C6.58382 31.4879 6.51922 31.4939 6.45462 31.4939H5.59329C4.40357 31.4939 3.43995 30.4104 3.43995 29.0725V22.2926C3.43995 22.2381 3.43995 22.1776 3.44534 22.1231V17.9038H1.72267C0.753667 17.9038 0 17.0563 0 15.9607C0 15.4158 0.1615 14.9316 0.538334 14.5078L14.3358 0.98428C14.7127 0.560535 15.1433 0.5 15.5202 0.5C15.897 0.5 16.3277 0.62107 16.6507 0.923745L30.3997 14.5139C30.8304 14.9376 31.0457 15.4219 30.9919 15.9667Z" fill="black"/>
</g>
<defs>
<clipPath id="clip0_279_5766">
<rect width="31" height="31" fill="white" transform="translate(0 0.5)"/>
</clipPath>
</defs>
</svg>