<svg width="80" height="57" viewBox="0 0 80 57" fill="none" xmlns="http://www.w3.org/2000/svg">
<g clip-path="url(#clip0_48_177)">
<path d="M41.6709 4.5C42.1266 4.5 42.5342 4.78365 42.6877 5.20835L43.782 8.2417C44.1736 8.33883 44.5115 8.43803 44.7957 8.5393C45.1057 8.64987 45.5087 8.82037 46.0047 9.0508L48.5529 7.7023C48.7607 7.5916 48.999 7.55154 49.2316 7.58817C49.4643 7.6248 49.6787 7.73613 49.8425 7.90535L52.0838 10.2226C52.3814 10.531 52.4651 10.9821 52.2977 11.3758L51.1026 14.1766C51.3 14.5404 51.4591 14.8524 51.58 15.1128C51.7102 15.3949 51.8714 15.7876 52.0636 16.2908L54.849 17.4843C55.2675 17.6626 55.5263 18.0811 55.4984 18.529L55.2938 21.7453C55.2798 21.9542 55.2048 22.1545 55.0781 22.3212C54.9513 22.4879 54.7784 22.6137 54.5808 22.683L51.9427 23.6208C51.8673 23.9845 51.7877 24.2976 51.704 24.5601C51.5686 24.9669 51.4144 25.3672 51.2421 25.7598L52.5674 28.6893C52.6616 28.895 52.6872 29.1256 52.6403 29.3469C52.5934 29.5683 52.4765 29.7687 52.307 29.9184L49.7867 32.169C49.621 32.3172 49.4138 32.411 49.1932 32.4376C48.9725 32.4642 48.749 32.4224 48.5529 32.3178L45.9551 30.9414C45.549 31.1575 45.1297 31.3475 44.6996 31.5103L43.565 31.935L42.5575 34.725C42.4821 34.9288 42.3472 35.1053 42.1703 35.2316C41.9935 35.3579 41.7827 35.4282 41.5655 35.4334L38.6205 35.5C38.3973 35.5052 38.1781 35.4414 37.9925 35.3174C37.8069 35.1935 37.6641 35.0153 37.5835 34.8071L36.3962 31.6653C35.9912 31.5266 35.5901 31.3767 35.1934 31.2158C34.869 31.0754 34.5495 30.9239 34.2355 30.7617L31.2905 32.0202C31.0965 32.1034 30.8825 32.1282 30.6747 32.0916C30.4668 32.055 30.2741 31.9586 30.1203 31.8141L27.941 29.7696C27.7781 29.6185 27.6672 29.4197 27.624 29.2018C27.5809 28.9838 27.6077 28.7578 27.7007 28.556L28.9671 25.797C28.7992 25.4699 28.6431 25.137 28.499 24.7988C28.3311 24.3847 28.176 23.9655 28.034 23.5417L25.2595 22.697C25.0339 22.6288 24.8372 22.4881 24.6999 22.2967C24.5626 22.1052 24.4923 21.8738 24.5 21.6383L24.6085 18.6608C24.6165 18.4666 24.6773 18.2783 24.7844 18.1161C24.8914 17.9539 25.0407 17.8239 25.2161 17.7401L28.127 16.342C28.2613 15.8481 28.3801 15.4616 28.4835 15.1826C28.6297 14.8079 28.7921 14.4397 28.9702 14.079L27.7085 11.413C27.612 11.2107 27.5825 10.9829 27.6243 10.7627C27.6661 10.5425 27.777 10.3414 27.941 10.1885L30.1172 8.1332C30.2695 7.98898 30.4604 7.89201 30.6667 7.85405C30.873 7.81609 31.086 7.83875 31.2797 7.9193L34.2216 9.1345C34.546 8.91853 34.8416 8.7408 35.1082 8.6013C35.4254 8.4339 35.8511 8.25513 36.3854 8.065L37.4084 5.21145C37.4848 5.00312 37.6232 4.82322 37.805 4.696C37.9868 4.56879 38.2033 4.50038 38.4252 4.5H41.6709ZM40.0372 15.3794C37.4533 15.3794 35.3593 17.4487 35.3593 20.0031C35.3593 22.5575 37.4533 24.6283 40.0372 24.6283C42.621 24.6283 44.7135 22.5575 44.7135 20.0031C44.7135 17.4487 42.621 15.3794 40.0372 15.3794Z" fill="black"/>
</g>
<text fill="black" xml:space="preserve" style="white-space: pre" font-family="Tamanegi Kaisho Geki FreeVer 7" font-size="12" letter-spacing="0em"><tspan x="24" y="50.8125">&#x8a2d;&#x5b9a;</tspan></text>
<defs>
<clipPath id="clip0_48_177">
<rect width="31" height="31" fill="white" transform="translate(24.5 4.5)"/>
</clipPath>
</defs>
</svg>
