<svg width="32" height="32" viewBox="0 0 32 32" fill="none" xmlns="http://www.w3.org/2000/svg">
<g clip-path="url(#clip0_48_178)">
<path d="M17.6709 0.5C18.1266 0.5 18.5342 0.78365 18.6877 1.20835L19.782 4.2417C20.1736 4.33883 20.5115 4.43803 20.7957 4.5393C21.1057 4.64987 21.5087 4.82037 22.0047 5.0508L24.5529 3.7023C24.7607 3.5916 24.999 3.55154 25.2316 3.58817C25.4643 3.6248 25.6787 3.73613 25.8425 3.90535L28.0838 6.2226C28.3814 6.53105 28.4651 6.9821 28.2977 7.3758L27.1026 10.1766C27.3 10.5404 27.4591 10.8524 27.58 11.1128C27.7102 11.3949 27.8714 11.7876 28.0636 12.2908L30.849 13.4843C31.2675 13.6626 31.5263 14.0811 31.4984 14.529L31.2938 17.7453C31.2798 17.9542 31.2048 18.1545 31.0781 18.3212C30.9513 18.4879 30.7784 18.6137 30.5808 18.683L27.9427 19.6208C27.8673 19.9845 27.7877 20.2976 27.704 20.5601C27.5686 20.9669 27.4144 21.3672 27.2421 21.7598L28.5674 24.6893C28.6616 24.895 28.6872 25.1256 28.6403 25.3469C28.5934 25.5683 28.4765 25.7687 28.307 25.9184L25.7867 28.169C25.621 28.3172 25.4138 28.411 25.1932 28.4376C24.9725 28.4642 24.749 28.4224 24.5529 28.3178L21.9551 26.9414C21.549 27.1575 21.1297 27.3475 20.6996 27.5103L19.565 27.935L18.5575 30.725C18.4821 30.9288 18.3472 31.1053 18.1703 31.2316C17.9935 31.3579 17.7827 31.4282 17.5655 31.4334L14.6205 31.5C14.3973 31.5052 14.1781 31.4414 13.9925 31.3174C13.8069 31.1935 13.6641 31.0153 13.5835 30.8071L12.3962 27.6653C11.9912 27.5266 11.5901 27.3767 11.1934 27.2158C10.869 27.0754 10.5495 26.9239 10.2355 26.7617L7.29051 28.0202C7.09654 28.1034 6.88251 28.1282 6.67465 28.0916C6.4668 28.055 6.27413 27.9586 6.12026 27.8141L3.94096 25.7696C3.7781 25.6185 3.66718 25.4197 3.62403 25.2018C3.58088 24.9838 3.60772 24.7578 3.70071 24.556L4.96706 21.797C4.79924 21.4699 4.64311 21.137 4.49896 20.7988C4.33105 20.3847 4.17598 19.9655 4.03396 19.5417L1.25946 18.697C1.03394 18.6288 0.837231 18.4881 0.699893 18.2967C0.562556 18.1052 0.492273 17.8738 0.499959 17.6383L0.608459 14.6608C0.616519 14.4666 0.677344 14.2783 0.784397 14.1161C0.891449 13.9539 1.04068 13.8239 1.21606 13.7401L4.12696 12.342C4.26129 11.8481 4.38013 11.4616 4.48346 11.1826C4.62971 10.8079 4.79209 10.4397 4.97016 10.079L3.70846 7.413C3.61198 7.21069 3.58251 6.9829 3.62432 6.7627C3.66613 6.5425 3.77705 6.34137 3.94096 6.1885L6.11716 4.1332C6.26951 3.98898 6.4604 3.89201 6.66672 3.85405C6.87305 3.81609 7.08595 3.83875 7.27966 3.9193L10.2216 5.1345C10.546 4.91853 10.8416 4.7408 11.1082 4.6013C11.4254 4.4339 11.8511 4.25513 12.3854 4.065L13.4084 1.21145C13.4848 1.00312 13.6232 0.823218 13.805 0.696004C13.9868 0.568791 14.2033 0.500382 14.4252 0.5H17.6709ZM16.0372 11.3794C13.4533 11.3794 11.3593 13.4487 11.3593 16.0031C11.3593 18.5575 13.4533 20.6283 16.0372 20.6283C18.621 20.6283 20.7135 18.5575 20.7135 16.0031C20.7135 13.4487 18.621 11.3794 16.0372 11.3794Z" fill="black"/>
</g>
<defs>
<clipPath id="clip0_48_178">
<rect width="31" height="31" fill="white" transform="translate(0.5 0.5)"/>
</clipPath>
</defs>
</svg>
