<svg width="40" height="40" viewBox="0 0 40 40" fill="none" xmlns="http://www.w3.org/2000/svg">
<path d="M18.3334 8.33337H35M18.3334 20H35M18.3334 31.6667H35" stroke="black" stroke-width="2" stroke-linecap="round" stroke-linejoin="round"/>
<path d="M8.33333 11.6667C10.1743 11.6667 11.6667 10.1743 11.6667 8.33333C11.6667 6.49238 10.1743 5 8.33333 5C6.49238 5 5 6.49238 5 8.33333C5 10.1743 6.49238 11.6667 8.33333 11.6667Z" fill="black" stroke="black" stroke-width="2" stroke-linecap="round" stroke-linejoin="round"/>
<path d="M8.33333 11.6667C10.1743 11.6667 11.6667 10.1743 11.6667 8.33333C11.6667 6.49238 10.1743 5 8.33333 5C6.49238 5 5 6.49238 5 8.33333C5 10.1743 6.49238 11.6667 8.33333 11.6667Z" fill="black" stroke="black" stroke-width="2" stroke-linecap="round" stroke-linejoin="round"/>
<path d="M8.33333 23.3333C10.1743 23.3333 11.6667 21.8409 11.6667 20C11.6667 18.159 10.1743 16.6666 8.33333 16.6666C6.49238 16.6666 5 18.159 5 20C5 21.8409 6.49238 23.3333 8.33333 23.3333Z" fill="black" stroke="black" stroke-width="2" stroke-linecap="round" stroke-linejoin="round"/>
<path d="M8.33333 35C10.1743 35 11.6667 33.5077 11.6667 31.6667C11.6667 29.8258 10.1743 28.3334 8.33333 28.3334C6.49238 28.3334 5 29.8258 5 31.6667C5 33.5077 6.49238 35 8.33333 35Z" fill="black" stroke="black" stroke-width="2" stroke-linecap="round" stroke-linejoin="round"/>
</svg>
