<svg width="80" height="65" viewBox="0 0 80 65" fill="none" xmlns="http://www.w3.org/2000/svg">
<path d="M38.3334 12.3334H55M38.3334 24H55M38.3334 35.6667H55" stroke="black" stroke-width="2" stroke-linecap="round" stroke-linejoin="round"/>
<path d="M28.3333 15.6667C30.1743 15.6667 31.6667 14.1743 31.6667 12.3333C31.6667 10.4924 30.1743 9 28.3333 9C26.4924 9 25 10.4924 25 12.3333C25 14.1743 26.4924 15.6667 28.3333 15.6667Z" fill="black" stroke="black" stroke-width="2" stroke-linecap="round" stroke-linejoin="round"/>
<path d="M28.3333 15.6667C30.1743 15.6667 31.6667 14.1743 31.6667 12.3333C31.6667 10.4924 30.1743 9 28.3333 9C26.4924 9 25 10.4924 25 12.3333C25 14.1743 26.4924 15.6667 28.3333 15.6667Z" fill="black" stroke="black" stroke-width="2" stroke-linecap="round" stroke-linejoin="round"/>
<path d="M28.3333 27.3333C30.1743 27.3333 31.6667 25.8409 31.6667 24C31.6667 22.159 30.1743 20.6666 28.3333 20.6666C26.4924 20.6666 25 22.159 25 24C25 25.8409 26.4924 27.3333 28.3333 27.3333Z" fill="black" stroke="black" stroke-width="2" stroke-linecap="round" stroke-linejoin="round"/>
<path d="M28.3333 39C30.1743 39 31.6667 37.5077 31.6667 35.6667C31.6667 33.8258 30.1743 32.3334 28.3333 32.3334C26.4924 32.3334 25 33.8258 25 35.6667C25 37.5077 26.4924 39 28.3333 39Z" fill="black" stroke="black" stroke-width="2" stroke-linecap="round" stroke-linejoin="round"/>
<text fill="black" xml:space="preserve" style="white-space: pre" font-family="Tamanegi Kaisho Geki FreeVer 7" font-size="12" letter-spacing="0em"><tspan x="20" y="59.3125">&#x5353;&#x72b6;&#x6cc1;</tspan></text>
</svg>
